<svg xmlns="http://www.w3.org/2000/svg" width="90" height="313" fill="#4eb49c"  fill-rule="evenodd" xmlns:v="https://vecta.io/nano"><path d="M83.6 268.828c.704-7.512-.456-14.34-3.092-21.533l-.007-.02c-1.17-3.265-2.498-6.588-3.876-10.003l-.38-.945-3.73-9.474c-2.633-7.045-4.93-14.412-5.725-21.938-1.593-14.1 1.922-24.746 7.828-36.562l.013-.026c4.938-9.645 6.18-20.846 5.45-31.822v-.038c-.233-4.308-1.226-8.507-2.437-12.887l-.852-3.017c-.97-3.4-1.983-6.948-2.682-10.54-2.315-11.58-2.82-22.608-2.566-34.283.135-6.716 1.62-12.204 3.508-17.352.803-2.188 1.7-4.343 2.568-6.474l.43-1.045c1.024-2.495 2.03-4.996 2.94-7.666L81 43.17c3.86-10.9.3-21.425-3.77-33.16a3 3 0 0 1 5.667-1.971l.138.398c3.914 11.252 8.236 23.678 3.627 36.718-.97 2.847-2.034 5.487-3.063 7.992l-.438 1.066-2.477 6.242c-1.75 4.767-3.026 9.572-3.142 15.407v.005C77.3 87.286 77.8 97.845 80 108.855l.003.016c.644 3.315 1.56 6.526 2.516 9.875l.913 3.235c1.234 4.463 2.373 9.17 2.644 14.143.77 11.608-.496 24-6.1 34.924-5.633 11.27-8.64 20.704-7.226 33.204l.002.023c.713 6.78 2.806 13.593 5.38 20.477 1.168 3.124 2.42 6.225 3.675 9.336l.38.94 3.956 10.212c2.882 7.864 4.23 15.6 3.43 24.137-.538 6.17-2.4 11.943-4.222 17.347l-.285.85c-1.742 5.188-3.37 10.037-4.04 15.068a3 3 0 1 1-5.947-.793c.75-5.624 2.552-10.984 4.252-16.042l.333-1c1.827-5.45 3.467-10.596 3.934-15.97l.002-.02zm-23.03 18.198c2.06-9.16-.192-18.765-3.87-27.838l-.005-.013-1.9-4.68c-4.827-11.882-9.46-23.3-10.6-37.105l-.003-.04c-.755-10.827-.826-23.527 3.756-34.043l.002-.004.663-1.515c3.3-7.528 6.418-14.646 8.468-22.4 5.067-19.802 1.5-36.704-2.8-56.852-2.8-12.694-4.382-24.16-2.3-37.5l.005-.028c.563-3.378 1.682-6.28 2.886-8.98l1.3-2.823c.783-1.672 1.538-3.282 2.25-5.106 2.282-5.94 2.674-12.65 2.097-19.598-.564-6.805-2.033-13.612-3.396-19.934l-.092-.424a3 3 0 1 1 5.865-1.265l.12.557c1.345 6.232 2.885 13.37 3.482 20.57.615 7.42.255 15.143-2.48 22.255l-.006.016c-.78 1.995-1.687 3.935-2.524 5.723l-1.138 2.47c-1.116 2.505-2.003 4.87-2.445 7.5-1.92 12.258-.5 22.876 2.227 35.278l.005.02.095.445c4.215 19.837 8.066 37.963 2.638 59.164l-.006.024c-2.174 8.215-5.472 15.74-8.735 23.182l-.702 1.604c-3.947 9.06-4.02 20.45-3.27 31.204 1.073 12.838 5.343 23.37 10.188 35.32l1.9 4.7c3.85 9.503 6.616 20.48 4.16 31.402a3 3 0 1 1-5.854-1.317zM37.144 11.18L36 6.74a3 3 0 1 1 5.821-1.455l1.078 4.17c1.955 7.43 3.97 15.092 3.525 23.8-.244 5.762-2.746 11.696-4.795 16.555l-.942 2.255c-.788 1.97-1.652 3.827-2.485 5.587l-.347.732-2.023 4.407c-1.434 3.346-2.5 6.628-2.712 10.417l-.004.058c-.97 12.372.724 24.54 4.4 36.276l.01.033c6.23 20.77 4.925 40.826-3.634 60.546-9.1 21.083-5.85 40.295.87 62.457l.004.01 2.168 7.098C40.022 249.7 43.3 260.32 44.927 270.9c2.033 13.23 1.567 26.802-5.098 39.737a3 3 0 0 1-5.334-2.748c5.883-11.417 6.422-23.578 4.5-36.078-1.553-10.1-4.662-20.2-7.738-30.163l-2.24-7.335c-6.83-22.52-10.606-43.475-.635-66.573l.002-.006c8.002-18.433 9.2-37.03 3.397-56.42-3.856-12.35-5.674-25.27-4.642-38.5.283-4.734 1.6-8.723 3.184-12.398.674-1.572 1.4-3.122 2.123-4.628l.34-.714c.83-1.752 1.626-3.47 2.342-5.26l.01-.022 1.035-2.5C38.237 42.373 40.24 37.6 40.43 33v-.03c.396-7.716-1.345-14.368-3.288-21.792zm-21.66-1.092l-1.83-6.4a3 3 0 1 1 5.84-1.375l1.705 5.95.347 1.082 1.525 4.967c1.153 4.152 1.948 8.617 1.242 13.705l-.01.068c-.822 5.07-2.727 9.646-4.736 13.9l-1.826 3.76c-1.424 2.895-2.777 5.646-3.887 8.548v.002C9.525 65.6 8.53 76.47 8.53 88.858c0 5.714.9 11.06 2.066 16.535l1.2 5.336c.87 3.8 1.776 7.728 2.464 11.767l.008.052c2.093 13.738-.08 27.558-2.655 40.965l-1.1 5.677c-2.275 11.55-4.484 22.765-4.484 33.893l-.01 3.8c-.03 7.542-.058 14.83.984 22.125l.003.023c.6 4.438 1.684 8.734 2.873 13.146l.525 1.937c1.02 3.75 2.072 7.62 2.843 11.577 2.02 9.342 3.567 18.082 3.825 27.888l.001.08c0 1.156.13 2.353.278 3.744l.277 2.86c.188 2.383.274 5.38-.798 7.882a3 3 0 0 1-5.515-2.363c.434-1.012.52-2.66.332-5.047-.052-.66-.13-1.416-.214-2.208-.17-1.62-.356-3.392-.36-4.827-.247-9.248-1.706-17.56-3.697-26.772l-.013-.06c-.726-3.733-1.715-7.373-2.74-11.142l-.538-1.987c-1.195-4.434-2.368-9.046-3.024-13.893-1.104-7.754-1.07-15.526-1.04-23.044l.01-3.72c0-11.763 2.34-23.624 4.612-35.135l1.1-5.566c2.57-13.384 4.536-26.292 2.62-38.905-.66-3.865-1.494-7.496-2.34-11.178l-1.27-5.647c-1.2-5.633-2.2-11.458-2.2-17.794 0-12.715 1.014-24.43 5.72-36.72 1.214-3.176 2.76-6.317 4.233-9.313l1.662-3.42c1.938-4.093 3.544-8.042 4.23-12.248.54-3.936-.044-7.495-1.085-11.24-.43-1.546-.92-3.075-1.44-4.7l-.365-1.14z"/></svg>