<svg xmlns="http://www.w3.org/2000/svg" width="258" height="280" fill="#b3d5f1"  xmlns:v="https://vecta.io/nano"><path d="M197.157 153.03c12.503.15 37.967-5.3 35.248-22.45-2.284-14.052-21.97-17-33.377-13.818-8.858 2.184-21.494 10.107-19.2 20.842 1.642 6.088 10.476 12.752 17.33 15.427zm-73.732 13.925c33.635 1 19.8-37.983-2.362-25.887-7.203 3.848-12.308 9.14-9.12 17.224 2.3 5.206 7.83 9.647 13.585 9m4.96-72.865c38.52-4.745 14.867-54.035-8.983-32.543-13.3 12.124-3.833 25.646 8.983 32.544zm-67.41 8.303c6.663-8.827 10.677-19.653.52-27.87-6.98 3.185-16.405 10.344-15.323 19.196.648 5.753 8.48 14.293 13.582 10.107"/><path d="M154.265 217.926c14.038 5.463 36.657-11.277 14.545-17.982-13.82-3.914-29.896 7.648-14.545 17.982zm42.35-148.84c8.613 6.22 16.916 4.588 24.463-3.573 5.77-6.175 6.447-10.376-.732-15.375-11.155-7.445-37.43 11.384-23.73 18.948zM38.583 157.95c4.76-.98 17.5-2.6 16.293-10.013-1.203-5.202-7.178-5-10.94-4.8-4.206.43-12.397 1.73-13.408 6.926-.784 3.426 4.18 8.418 8.06 6.77m32.624 85.164c7.97-.64 23.26-8.775 19.306-18.962-2.855-7.972-10.938-5.896-16.37-1.82-7.318 5.286-10.665 15.23-2.935 20.783zM8.2 220.786c6.1-1.64 17.502-7.024 17.08-14.545-.316-5.642-6.723-9.643-12.258-8.555-8.083 2.076-13.88 17.1-4.822 23.1z"/></svg>