<svg xmlns="http://www.w3.org/2000/svg" width="73" height="251" fill="#b3d5f1"  fill-rule="evenodd" xmlns:v="https://vecta.io/nano"><path d="M6.16 35.4c-.553 5.902.356 11.273 2.438 16.956l.007.02c.93 2.598 2 5.245 3.1 7.977L12 61.1l2.986 7.6c2.1 5.65 3.97 11.595 4.6 17.688 1.3 11.435-1.57 20.07-6.318 29.572l-.013.026c-3.88 7.582-4.872 16.42-4.292 25.134l.002.037c.182 3.378.962 6.685 1.927 10.178l.675 2.392c.777 2.72 1.596 5.594 2.16 8.493 1.862 9.317 2.266 18.18 2.062 27.543-.1 5.46-1.317 9.915-2.84 14.07-.646 1.762-1.36 3.497-2.062 5.2l-.343.834c-.818 1.993-1.616 3.98-2.337 6.096l-.012.033c-3.004 8.487-.26 16.7 3.015 26.12a3 3 0 0 1-5.667 1.97l-.134-.386c-3.112-8.95-6.63-19.062-2.876-29.7.782-2.294 1.637-4.417 2.46-6.422l.35-.855 1.97-4.968c1.385-3.774 2.384-7.547 2.475-12.125v-.006c.198-9.103-.2-17.5-1.95-26.247l-.003-.016c-.5-2.623-1.232-5.157-1.994-7.83l-.736-2.6c-1-3.577-1.914-7.4-2.134-11.434-.62-9.344.395-19.364 4.932-28.234 4.475-8.958 6.828-16.38 5.716-26.214l-.002-.023c-.562-5.346-2.215-10.74-4.266-16.227-.93-2.5-1.928-4.963-2.932-7.45l-.303-.75-3.17-8.187C.632 48.056-.464 41.8.184 34.85c.436-5.013 1.956-9.7 3.404-14.007l.222-.662C5.208 16.016 6.492 12.19 7 8.225a3 3 0 0 1 5.947.793c-.607 4.557-2.065 8.895-3.42 12.928l-.27.803c-1.462 4.363-2.75 8.415-3.116 12.632v.02zm18.196-14.477c-1.608 7.15.142 14.692 3.064 21.904l.005.013 1.5 3.738c3.857 9.496 7.597 18.705 8.525 29.85l.003.04c.604 8.665.675 18.95-3.05 27.505l-.002.003-.526 1.202c-2.64 6.03-5.116 11.68-6.743 17.825-4 15.68-1.188 29.06 2.236 45.186 2.238 10.18 3.526 19.433 1.837 30.207l-.005.028c-.462 2.774-1.38 5.15-2.35 7.328l-1.055 2.292c-.62 1.323-1.2 2.58-1.773 4.02-1.78 4.632-2.095 9.897-1.638 15.405.448 5.402 1.615 10.813 2.707 15.878l.07.325a3 3 0 0 1-5.865 1.264l-.1-.456c-1.073-4.976-2.312-10.718-2.793-16.515-.496-5.98-.2-12.257 2.02-18.062l.006-.016c.63-1.613 1.372-3.2 2.045-4.64l.893-1.94c.883-1.983 1.57-3.82 1.9-5.858 1.517-9.693.4-18.1-1.774-27.986l-.005-.02-.086-.403c-3.363-15.832-6.467-30.447-2.093-47.538l.006-.024c1.75-6.616 4.405-12.673 7-18.618l.563-1.286c3.092-7.1 3.166-16.077 2.568-24.67-.85-10.168-4.228-18.5-8.103-28.063l-1.52-3.768c-3.096-7.642-5.357-16.558-3.354-25.467a3 3 0 1 1 5.854 1.316zm18.726 220.28l.92 3.578a3 3 0 1 1-5.821 1.455l-.856-3.308c-1.563-5.94-3.202-12.168-2.842-19.24.2-4.726 2.252-9.587 3.887-13.462l.743-1.777c.638-1.593 1.335-3.1 2-4.5l.278-.588 1.607-3.5c1.132-2.643 1.948-5.195 2.12-8.13l.004-.058c.77-9.808-.573-19.46-3.484-28.783l-.01-.033c-5.02-16.747-3.97-32.932 2.93-48.83 7.187-16.657 4.642-31.845-.72-49.53l-.003-.012-1.726-5.65c-2.47-8.003-5.107-16.55-6.415-25.066-1.636-10.654-1.272-21.647 4.136-32.143a3 3 0 1 1 5.334 2.748c-4.625 8.977-5.063 18.56-3.54 28.484 1.234 8.036 3.703 16.044 6.16 24.015l1.797 5.9c5.47 18.045 8.542 34.975.484 53.647l-.002.005c-6.34 14.6-7.296 29.336-2.692 44.704 3.1 9.936 4.567 20.342 3.736 30.995-.233 3.88-1.32 7.14-2.593 10.1-.544 1.27-1.136 2.52-1.707 3.723l-.27.57c-.662 1.4-1.292 2.76-1.858 4.172l-.01.022-.835 2.013c-1.658 3.967-3.2 7.68-3.358 11.23l-.001.03c-.3 6.07 1.053 11.288 2.605 17.222zm17.51.866l1.476 5.163a3 3 0 1 1-5.841 1.373l-1.35-4.7-.276-.86-1.227-4c-.933-3.36-1.6-7.02-1-11.202.003-.023.007-.046.01-.068.67-4.14 2.223-7.86 3.836-11.268l1.476-3.04c1.133-2.303 2.196-4.465 3.073-6.76v-.001c3.423-8.944 4.216-17.56 4.216-27.435 0-4.507-.703-8.734-1.64-13.097l-.952-4.236c-.698-3.04-1.43-6.22-1.98-9.466l-.008-.05c-1.7-11.098.07-22.24 2.126-32.962l.888-4.55c1.82-9.24 3.572-18.144 3.572-26.98l.008-3.057c.023-6.032.046-11.8-.78-17.598l-.003-.023c-.474-3.508-1.332-6.9-2.28-10.437l-.418-1.543c-.815-2.997-1.662-6.113-2.282-9.3-1.616-7.482-2.862-14.5-3.07-22.406l-.001-.08c0-.897-.098-1.802-.214-2.884l-.228-2.35c-.15-1.905-.237-4.436.684-6.586a3 3 0 1 1 5.515 2.362c-.283.66-.37 1.843-.218 3.752.04.494.1 1.076.165 1.697.137 1.3.292 2.8.296 3.967.196 7.337 1.354 13.94 2.942 21.3l.006.03.007.033c.576 2.962 1.36 5.848 2.178 8.863l.432 1.594c.956 3.547 1.902 7.267 2.432 11.183.892 6.254.865 12.518.84 18.527l-.008 2.965c0 9.47-1.884 19.02-3.7 28.22l-.868 4.44c-2.053 10.7-3.605 20.928-2.1 30.902.524 3.072 1.185 5.945 1.86 8.877l1.022 4.546c.97 4.52 1.772 9.227 1.772 14.356 0 10.2-.812 19.652-4.612 29.578-.98 2.568-2.236 5.12-3.418 7.524l-1.312 2.7c-1.54 3.257-2.795 6.352-3.33 9.627-.415 3.03.032 5.786.852 8.74.34 1.223.728 2.432 1.143 3.722l.294.917z"/></svg>