<svg xmlns="http://www.w3.org/2000/svg" width="221" height="65" fill="#c48e6a"  fill-rule="evenodd" xmlns:v="https://vecta.io/nano"><path d="M31.37 6.137c5.096-.477 9.736.305 14.664 2.1l.02.007c2.264.8 4.573 1.734 6.962 2.697l.663.267 6.646 2.615c4.95 1.85 10.184 3.487 15.56 4.054 10.1 1.14 17.726-1.393 26.07-5.562l.026-.013c6.55-3.353 14.203-4.218 21.783-3.713h.037c2.912.157 5.772.83 8.82 1.672l2.078.587c2.382.68 4.916 1.403 7.468 1.9 8.184 1.635 15.965 2 24.168 1.8 4.83-.097 8.77-1.166 12.426-2.508 1.548-.568 3.073-1.196 4.563-1.8l.727-.3c1.742-.715 3.47-1.4 5.3-2.036l.034-.012c7.277-2.576 14.33-.235 22.592 2.637a3 3 0 0 0 1.97-5.667l-.377-.13c-7.797-2.712-16.752-5.827-26.17-2.5-2.017.688-3.883 1.44-5.636 2.16l-.75.308-4.33 1.718c-3.276 1.202-6.534 2.063-10.482 2.142h-.005c-7.945.173-15.26-.175-22.872-1.697l-.016-.003c-2.276-.442-4.47-1.068-6.803-1.733l-2.296-.648c-3.134-.866-6.5-1.684-10.077-1.88-8.2-.545-17.047.345-24.884 4.353-7.8 3.896-14.212 5.922-22.712 4.96l-.023-.003c-4.628-.487-9.3-1.92-14.1-3.7-2.173-.812-4.33-1.683-6.508-2.56l-.657-.265-7.172-2.777C42.488.56 36.952-.4 30.82.163c-4.435.387-8.564 1.73-12.336 2.994l-.567.2C14.264 4.573 10.95 5.685 7.52 6.142a3 3 0 0 0 .793 5.947c4.022-.536 7.85-1.822 11.37-3.006l.7-.238c3.818-1.28 7.322-2.4 10.96-2.707l.02-.002zM18.757 22.044c6.14-1.38 12.65.116 18.93 2.66l.013.005 3.266 1.32c8.3 3.37 16.408 6.665 26.215 7.482l.04.003c7.58.53 16.658.6 24.23-2.7l.004-.002 1.044-.457c5.278-2.312 10.195-4.465 15.54-5.88 13.613-3.48 25.232-1.037 39.34 1.96 8.92 1.96 17.066 3.098 26.554 1.6l.03-.005c2.472-.412 4.582-1.23 6.5-2.083l2.026-.932c1.15-.538 2.228-1.044 3.478-1.533 3.977-1.527 8.517-1.806 13.305-1.408 4.7.4 9.4 1.405 13.847 2.362l.274.06a3 3 0 0 0 1.264-5.865l-.406-.088c-4.347-.938-9.4-2.025-14.483-2.448-5.26-.436-10.812-.2-15.962 1.8l-.016.006c-1.42.556-2.83 1.214-4.095 1.805l-1.674.77c-1.72.767-3.293 1.352-5.03 1.643-8.4 1.316-15.706.35-24.333-1.548l-.02-.005-.382-.08c-13.827-2.937-26.683-5.668-41.715-1.82l-.024.006c-5.815 1.538-11.138 3.87-16.33 6.147l-1.13.495c-6.12 2.666-13.887 2.74-21.397 2.216-8.83-.74-16.063-3.67-24.43-7.06l-3.296-1.33c-6.7-2.718-14.593-4.728-22.494-2.95a3 3 0 1 0 1.316 5.854zm192.446 16.37l3.147.8a3 3 0 1 0 1.454-5.821l-2.875-.744c-5.195-1.368-10.705-2.818-16.952-2.5-4.207.18-8.53 2.005-11.912 3.433l-1.538.643c-1.405.562-2.723 1.176-3.954 1.758l-.515.244-3.05 1.4c-2.3.98-4.477 1.677-6.983 1.825l-.032.002-.026.002c-8.523.668-16.917-.497-25.03-3.03l-.033-.01c-14.73-4.417-28.976-3.5-42.96 2.577-14.44 6.23-27.613 4.038-43.057-.644l-.012-.003-4.927-1.505c-7-2.16-14.507-4.478-21.986-5.626-9.363-1.438-19.065-1.124-28.34 3.654a3 3 0 1 0 2.748 5.334c7.755-3.995 16.048-4.383 24.68-3.057 6.997 1.075 13.967 3.223 20.935 5.37l5.165 1.576c15.803 4.8 30.718 7.5 47.173.408l.005-.002c12.697-5.5 25.482-6.34 38.834-2.34 8.727 2.724 17.874 4.013 27.242 3.282 3.45-.207 6.345-1.175 8.963-2.297 1.117-.478 2.218-1 3.27-1.5l.497-.235c1.223-.58 2.403-1.126 3.627-1.615l.022-.01 1.773-.735c3.474-1.452 6.65-2.778 9.68-2.904h.03c5.245-.27 9.746.907 14.933 2.263zm.75 15.312l4.544 1.3a3 3 0 1 0 1.374-5.841L213.78 48l-.748-.24-3.515-1.078c-2.963-.823-6.22-1.4-9.95-.892h-.068c-3.674.595-6.966 1.97-9.955 3.386l-2.68 1.3C184.856 51.483 183 52.4 181 53.16h0c-7.76 2.97-15.242 3.662-23.857 3.662-3.902 0-7.57-.608-11.374-1.425l-3.685-.828c-2.664-.612-5.464-1.255-8.314-1.74l-.03-.005-.02-.003c-9.776-1.5-19.576.062-28.954 1.862l-3.986.778c-8.083 1.6-15.83 3.116-23.516 3.116l-2.68.007c-5.277.02-10.3.04-15.33-.68l-.023-.003c-3.042-.4-5.998-1.155-9.08-1.985l-1.346-.365c-2.62-.712-5.358-1.456-8.157-2.002-6.55-1.415-12.723-2.5-19.66-2.692l-.08-.001c-.768 0-1.527-.082-2.454-.182l-2.094-.203c-1.666-.13-3.964-.218-5.938.628a3 3 0 1 0 2.362 5.515c.484-.207 1.434-.293 3.104-.162.4.032.906.084 1.44.14 1.154.12 2.488.26 3.537.264 6.38.17 12.127 1.177 18.545 2.564l.06.013c2.575.5 5.085 1.182 7.72 1.898l1.397.38c3.104.836 6.376 1.67 9.826 2.136 5.5.784 11.006.76 16.26.738l2.588-.007c8.322 0 16.713-1.656 24.758-3.244l3.875-.758c9.355-1.795 18.243-3.14 26.894-1.827 2.675.456 5.17 1.03 7.725 1.617l3.995.898c3.963.85 8.1 1.558 12.633 1.558 8.94 0 17.26-.712 26-4.058m28.8-5.04l-.805-.258zm-.805-.258l-3.237-.995zm-3.237-.995c-2.556-.7-4.908-1.087-7.486-.735zm-7.486-.735c-2.8.46-5.476 1.538-8.313 2.88l-2.342 1.138c-2.108 1.036-4.364 2.146-6.626 3"/></svg>