<svg xmlns="http://www.w3.org/2000/svg" width="1405" height="1295" fill="none"  xmlns:v="https://vecta.io/nano"><path d="M219.93 739.073c5.178 35.194 4.573 72.614 24.452 101.837 15.2 22.346 39.46 36.17 64.038 48.55 111.1 54.91 239.08 80.23 365.203 72.18 80.77-5.384 160.798-24.118 241.924-25.533 80.956-2.046 166.673 16.3 221.973 71.943 16.5 16.58 33.34 37.13 57.18 36.16 9.1-.4 17.36-3.97 24.8-8 98.53-52.824 108.84-183.62 99.43-290.165-14.7-157.97-48.3-323.064-156.46-441.083C1016.3 145.65 763.404 109.09 545.3 160.075c-142.695 33.493-385.296 112.046-479.137 230-52.916 67.018-16.982 95.325 34.8 143.096 61.273 56.745 107.2 122.343 118.958 205.903z" fill="#ffe3d4"/></svg>