<svg xmlns="http://www.w3.org/2000/svg" width="465" height="512" fill="#ffe3d4"  xmlns:v="https://vecta.io/nano"><path d="M423.928 333.368c2.233-11.175 2.436-23.366 0-36.573C408.7 211.865 319.965 94.427 221.9 119.418c-41.626 10.565-84.267 34.134-122.44 53.64C42.2 202.316 6.868 241.326 1.6 307.97-2.686 360.797-.047 424.8 31.63 469.905c17.26 24.382 45.28 42.668 74.926 42.06 24.57-.407 47.108-12.8 69.444-23.163 76.348-34.947 228.23-55.468 247.928-155.433zM334 100.838c1.006 2.97 2.636 5.905 5.034 8.72 15.314 18.153 52.6 33.955 72.504 14.52 8.454-8.24 15.36-19.718 21.762-29.614 9.603-14.844 12.644-29 4.728-45.612-6.256-13.18-15.693-28.074-29.44-34.474-7.464-3.44-16.65-3.95-23.624.27-5.792 3.473-9.45 9.526-13.342 15.065C358.258 48.536 324.93 74.3 334 100.838z"/></svg>