<svg xmlns="http://www.w3.org/2000/svg" width="891" height="1116" fill="none"  xmlns:v="https://vecta.io/nano"><path d="M97.775 834.23c-25.62-60.708-28.523-131.78-1.242-191.933 57.41-124.837 206.923-159.063 300.54-247.536 40.96-38.414 72.94-88.867 77.964-144.868 2.545-30.537-2.77-61.683-14.59-89.994-9.612-22.45-22.996-47.483-13.07-69.933C456.4 68.9 483.9 60.63 506.3 65.864c80.83 19.18 144.796 117.42 185.59 182.13 35.568 56.524 80.116 115.32 81.52 184.595 1.154 58.997-23.243 121.852-37.164 179.007-17.41 72.077-34.65 151.006-72.77 215.46-62.358 104.86-173.886 65.243-270.124 140.49-46.135 36.194-116.738 60.904-169.55 23.44-52.186-36.823-101.776-98.22-126.027-156.754z" fill="#ffe3d4"/></svg>