<svg xmlns="http://www.w3.org/2000/svg" width="137" height="91" fill="#ace0d2"  xmlns:v="https://vecta.io/nano"><path d="M117.242 18.424c-25.885-7.363-43.142-3.786-46.93 23.77-1.894 14.305-7.155 29.87 8.208 38.917 10.102 5.9 35.145 11.57 46.088 8.204 16.204-5.26 11.575-23.56 10.522-36.182-.84-10.097-1.683-35.762-17.888-34.7zm-98.07 19.353c13.9-.84 21.887-5.68 18.94-19.774C36.64 10.64 36.43 2.015 27.38.332 21.488-.72 8.23.753 3.4 4.33-3.545 9.6 1.927 17.793 4.452 23.894c2.104 4.628 6.945 17.04 14.73 13.884z"/></svg>