<svg xmlns="http://www.w3.org/2000/svg" width="137" height="91" fill="#e3f4ff"  xmlns:v="https://vecta.io/nano"><path d="M117.242 19.085C91.357 11.723 74.1 15.3 70.312 42.856c-1.894 14.305-7.155 29.87 8.208 38.917 10.102 5.9 35.145 11.57 46.088 8.204 16.204-5.26 11.575-23.56 10.522-36.182-.84-10.097-1.683-35.762-17.888-34.7zM19.173 38.44c13.9-.84 21.887-5.68 18.94-19.774C36.64 11.302 36.43 2.677 27.38.994 21.488-.058 8.23 1.415 3.4 5c-6.945 5.26-1.473 13.463 1.052 19.564 2.104 4.628 6.945 17.04 14.73 13.884z"/></svg>