<svg xmlns="http://www.w3.org/2000/svg" width="126" height="99" fill="none"  xmlns:v="https://vecta.io/nano"><g clip-path="url(#A)" fill="#ace0d2"><path d="M19.572 46.453c-2.538.86-4.957-1.02-6.764-2.9-2.265-2.455-4.586-5.85-3.3-8.895s5.47-3.77 8.514-2.493 5.048 4.125 6.95 6.8c-1.42-3.307.203-7.646 3.546-9.214s7.715-.1 9.462 3.15.553 7.695-2.723 9.6c2.338-1.838 5.422-3.013 8.37-2.532s5.682 2.9 5.955 5.908c.378 3.182-2.125 6.207-5.065 7.42s-6.3 1.087-9.46.854c2.258.76 3.728 3.3 3.87 5.657.102 2.5-.697 4.896-1.743 7.08-.298.536-.452 1.1-.998 1.427-.585.46-1.523.516-2.24.324-5.685-.6-10.387-6.017-10.072-11.785-.52 3.094-4.057 5.38-7.07 4.574-3.053-.664-5.192-4.163-4.383-7.18.886-3.305 4.267-5.017 6.865-7.247m84.302-12.065c-1.8-.787-2.1-3.03-2.223-4.908-.102-2.5.38-5.442 2.632-6.38 2.108-.975 4.747.656 5.682 2.9s.606 4.63.42 7.043c.98-2.5 3.855-4.05 6.4-3.214s4.082 3.712 3.532 6.337-3.423 4.165-6.046 3.616c2.125.107 4.345 1 5.72 2.765s1.62 4.285.364 6.104c-1.44 1.925-4.148 2.277-6.406 1.518s-3.96-2.447-5.48-4.24c.84 1.457.445 3.507-.696 4.896s-2.74 2.192-4.34 2.995c-.364.2-.872.382-1.302.267-.613-.01-.967-.413-1.464-.854-2.723-3.04-2.563-8.233.4-11.287-1.753 1.378-4.7.896-6.038-1.002s-.7-4.8 1.3-5.968c2.04-1.3 4.768-.57 7.22-.53M63.07 66.117c-1.348-1.285-1.057-3.517-.557-5.385.76-2.26 2.104-4.98 4.488-5.266s4.362 2.093 4.502 4.44-.802 4.713-1.8 6.754c1.62-2.03 4.98-2.515 7.047-1.038 2.2 1.516 2.692 4.88 1.36 6.986-1.372 2.25-4.666 3.062-6.914 1.7 2.076.864 3.816 2.4 4.502 4.44s.137 4.657-1.58 5.9c-1.897 1.34-4.7.896-6.44-.648-1.778-1.4-2.895-3.548-3.83-5.8.294 1.773-.78 3.487-2.275 4.473s-3.266 1.28-5 1.433c-.47.028-.938.057-1.37-.06-.536-.298-.85-.844-1.022-1.352-1.593-3.815.185-8.73 3.892-10.508-2.174.65-4.747-.656-5.395-2.83s.802-4.714 3.12-5.325 4.67.943 6.9 1.846"/></g><defs><clipPath id="A"><path fill="#fff" transform="matrix(.965926 .258819 -.258819 .965926 18.635 0)" d="M0 0h111v72H0z"/></clipPath></defs></svg>