<svg xmlns="http://www.w3.org/2000/svg" width="52" height="53" fill="none"  xmlns:v="https://vecta.io/nano"><g clip-path="url(#A)" fill-rule="evenodd" fill="#c48e6a"><path d="M25.68.494C13.568.494 2.824 9.205.83 21.28h0C-.408 28.737 1.924 36.547 6.5 42.5s11.404 10.03 19.123 10.055c14.3-.001 25.877-11.646 25.877-26.03S39.932.494 25.68.494zM.347 21.2C2.38 8.873 13.34 0 25.68 0 40.204 0 52 11.867 52 26.525S40.203 53.05 25.632 53.05h-.001c-7.897-.025-14.85-4.196-19.5-10.246S-.918 28.808.347 21.2zM25.68 3.804c-6.514 0-13.36 2.985-17.334 8.25l-.001.001C3.036 19.006 2.94 28.3 6.404 35.85S16.86 49.197 25.68 49.197c12.435 0 22.538-10.163 22.538-22.672 0-12.558-10.104-22.72-22.538-22.72zm-17.725 7.95C12.035 6.35 19.035 3.3 25.68 3.3c12.706 0 23.03 10.385 23.03 23.215 0 12.78-10.323 23.166-23.03 23.166-9.054 0-16.2-5.943-19.723-13.635s-3.444-17.166 2-24.292zm18.64-3.06C15.607 7.816 6.9 17.26 8.198 28.125h0c1.068 8.94 8.3 16.725 17.482 16.725 10.078 0 18.217-8.188 18.217-18.325 0-9.634-7.937-17.15-17.302-17.832h-.002zm.038-.492C15.328 7.3 6.367 17.02 7.7 28.185c1.092 9.14 8.494 17.16 17.97 17.16 10.35 0 18.708-8.4 18.708-18.82C44.4 16.6 36.22 8.9 26.632 8.2zm-.952 3.95c-7.9 0-14.576 7.14-14.142 15.052h0c.386 7.38 6.764 13.646 14.142 13.646 7.868 0 14.24-6.4 14.24-14.324 0-7.965-6.372-14.374-14.24-14.374zM11.05 27.23c-.45-8.192 6.438-15.573 14.632-15.573 8.14 0 14.73 6.63 14.73 14.868 0 8.188-6.592 14.818-14.73 14.818-7.647 0-14.233-6.478-14.632-14.114z"/></g><defs><clipPath id="A"><path fill="#fff" d="M0 0h52v53H0z"/></clipPath></defs></svg>