<svg xmlns="http://www.w3.org/2000/svg" width="59" height="53" fill="none"  xmlns:v="https://vecta.io/nano"><g clip-path="url(#A)" fill="#c48e6a"><path d="M37.578 48.28c-7.303-2.45-9.826-10.556-17.262-12.248-2.744-.623-6.02-.223-8.852.4-4.16.846-7.17 1.425-11.464 1.113 5.3 3.518 6.197 9.353 12.8 11.402 2.833.846 5.356 1.915 8 3.207 3.23 1.56 5.4.713 8.542-.445 2.7-.98 5.665-1.915 8.232-3.43zm.3-6.325c-9.162.713-8.852-14.297-12.614-19.285-3.275-4.32-8.233-5.2-12.437-8.373C9.607 11.892 8.2 9.264 7.35 5.345 6.95 3.518 6.993 1.158 6.064 0c6.728 6.102 18.413 2.94 23.28 11.892 2.346 4.365 3.408 7.393 7.524 10.244 3.983 2.76 4.647 4.9 3.806 9.665-.575 3.43-1.062 7.17-2.788 10.155zm5.355 7.305c-4.603-3.207 1.948-9.976 3.54-12.87.885-1.56 1.815-3.563 2.17-5.345.3-1.782-.354-3.118-.62-4.8-.885-5.523 3.098-9.487 5.444-13.985 2.48 6.502 6.197 12.07 5.046 19.374-.974 6.235-5.046 11.313-10.18 14.653-1.593 1.024-3.63 2.54-5.4 2.984z"/></g><defs><clipPath id="A"><path fill="#fff" d="M0 0h59v53H0z"/></clipPath></defs></svg>