<svg xmlns="http://www.w3.org/2000/svg" width="110" height="286" fill="none"  xmlns:v="https://vecta.io/nano"><g clip-path="url(#A)" fill="#ffa188"><path d="M66.642 19.468c3.412 7.225 8.63 13.246 15.055 17.863 4.617 3.21 11.442 6.623 16.86 3.21s5.42-11.04 5.22-16.458c-.2-7.627-1.605-15.253-4.014-22.68-.4-1.004-2.007-.602-1.606.602 2.007 6.02 3.412 12.444 3.814 18.665.4 5.42 1.405 14.25-3.413 18.063-5.62 4.415-13.45-.602-18.066-4.215-5.22-4.215-9.434-9.634-12.445-15.655-.4-1.204-2.007-.2-1.405.602z"/><path d="M97.354 40.14c-5.42-4.215-10.84-8.63-15.255-14.05-4.416-5.62-6.825-12.443-8.832-19.267-.4-1.004-2.007-.602-1.606.602 2.007 7.025 4.617 13.848 9.033 19.67C85.1 32.715 90.73 37.13 96.15 41.546c.803.602 2.007-.602 1.204-1.405z"/><path d="M95.347 40.34c-6.223-2.208-11.04-6.824-15.657-11.24-5.42-5.018-9.234-11.24-11.442-18.264-.4-1.003-2.007-.602-1.606.602 2.007 7.025 5.82 13.246 11.04 18.464 4.817 4.817 10.237 9.834 16.86 12.243 1.004.2 1.807-1.405.803-1.806zM82.5 26.894c-1.004-7.225-2.6-14.25-5.018-21.074-.4-1.004-2.007-.602-1.606.602 2.4 6.623 4.015 13.447 5.018 20.472.2 1.204 1.806 1.204 1.606 0zm15.456 11.44c-3.613-5.218-7.427-10.236-9.234-16.458L84.106 3.813c-.2-1.004-1.806-.602-1.606.602l5.018 19.067c1.807 5.82 5.62 10.838 9.033 15.855.602.803 2.007-.2 1.405-1.004z"/><path d="M91.734 27.296c1.204-7.426.803-14.852-.803-22.077-.2-1.004-1.807-.602-1.606.602 1.606 7.025 2.007 14.25.803 21.274-.2.803 1.606 1.204 1.606.2z"/><path d="M91.934 14.05c-3.814-3.2-2.6-9.433-5.22-13.648-.602-1.004-2.007 0-1.405 1.004 2.8 4.415 1.405 10.436 5.62 13.848.803.602 2.007-.602 1.004-1.204zm7.628 23.883A192.38 192.38 0 0 0 95.949.803c-.2-1.004-1.807-.602-1.606.602 2.4 12.042 3.613 24.486 3.613 36.728-.2 1.003 1.606.803 1.606-.2zm-4.215 4.415c2.6 5.017 4.416 10.437 5.22 16.056.4 2.408 1.204 5.62.602 8.028-.2 1.004-1.004 1.806-1.204 2.8s.2 2.007-.2 3 1.003 1.806 1.606.803c.4-.803.4-1.405.4-2.408.2-1.405.803-2.6 1.004-4.014.602-2.6 0-5.82-.602-8.63-1.004-6.02-2.8-11.64-5.62-17.06-.2-.602-1.606.402-1.204 1.405zm-44.36 136.277C46.77 172 40.95 166.382 34.124 162.568c-5.018-2.8-12.044-5.218-17.062-1.204s-4.215 11.44-3.412 17.06c1.004 7.626 3.212 15.052 6.624 22.077.4 1.004 2.007.4 1.606-.602-2.6-5.82-4.617-11.842-5.82-18.264-1.004-5.218-3-14.05 1.606-18.264 5.22-5.017 13.45-.803 18.266 2.4a45.35 45.35 0 0 1 14.05 14.25c.4.603 1.606-.4 1.004-1.404z"/><path d="M18.266 161.565c5.82 3.612 11.843 7.426 16.66 12.443 5.018 5.218 8.23 11.64 10.84 18.063.402 1.004 2.007.402 1.606-.602-2.8-6.824-6.022-13.246-11.04-18.464-5.018-5.018-11.04-9.032-17.062-12.645-1.004-.802-1.807.603-1.004 1.205z"/><path d="M20.274 160.963c6.423 1.605 11.642 5.62 16.86 9.433 5.82 4.415 10.438 10.236 13.248 17.06.4 1.004 2.007.402 1.606-.602-2.8-6.824-7.226-12.644-12.847-17.06-5.42-4.215-11.24-8.63-18.066-10.437-1.204-.2-1.806 1.405-.803 1.606zm14.05 12.042c1.606 7.024 4.215 13.848 7.226 20.27.4 1.003 2.007.2 1.606-.602a117.67 117.67 0 0 1-7.226-19.87c-.2-1.003-1.807-.803-1.606.2zm-16.46-9.635c4.015 4.817 8.43 9.433 10.84 15.254l6.624 17.46c.4 1.003 2.007.4 1.606-.603-2.4-6.22-4.416-12.443-7.026-18.464-2.4-5.62-6.825-10.035-10.64-14.65-.803-.803-2.208.2-1.405 1.003z"/><path d="M25.09 173.808c-.4 7.426.803 14.852 3.212 21.876.4 1.004 2.007.4 1.606-.602a53.74 53.74 0 0 1-3.011-21.074c0-1.204-1.807-1.405-1.807-.2z"/><path d="M26.296 187.054c4.215 2.8 3.613 9.032 6.624 12.845.602.803 2.007-.2 1.405-1.004-3.212-4.014-2.4-10.235-7.026-13.246-.803-.602-1.806.803-1.004 1.405zm-10.036-23.08c1.405 12.444 4.015 24.687 7.628 36.528.4 1.004 1.807.4 1.606-.602-3.613-11.84-6.223-23.884-7.427-36.126-.2-1.205-1.806-.803-1.806.2zm3.612-4.817c-3-4.816-5.42-10.035-7.026-15.454-.602-2.408-1.806-5.62-1.405-8.028.2-1.003.803-1.806.803-3 0-1.004-.402-2.007 0-3s-1.204-1.605-1.606-.602c-.4.803-.2 1.405-.2 2.4 0 1.404-.402 2.6-.602 4.014-.2 2.6.803 5.82 1.405 8.43 1.606 5.82 4.015 11.24 7.427 16.257.602 1.003 1.807 0 1.204-1.004zM43.157 228.8c2.8 7.426 7.226 14.05 13.248 19.267 4.416 3.814 10.64 7.627 16.46 4.817s6.423-10.436 6.825-16.056c.602-7.626-.2-15.454-1.807-22.88-.2-1.003-2.007-.803-1.606.402 1.405 6.22 2.208 12.644 2.007 19.066-.2 5.42 0 14.25-5.22 17.662-6.022 3.813-13.248-2.007-17.464-6.02-4.818-4.817-8.43-10.437-10.84-16.86-.4-1.204-2.007-.4-1.606.602z"/><path d="M71.66 252.282c-5.018-4.817-10.036-9.633-13.85-15.454-3.814-6.02-5.62-13.045-6.825-20.07-.2-1.004-1.806-.803-1.606.4 1.204 7.226 3.212 14.25 7.026 20.472 3.814 6.02 9.033 11.04 14.05 15.855.803.803 2.007-.4 1.204-1.204z"/><path d="M69.653 252.282c-5.82-2.8-10.237-7.827-14.452-12.845-4.818-5.62-8.03-12.042-9.434-19.468-.2-1.003-1.806-.803-1.606.402 1.405 7.225 4.416 13.848 9.234 19.468 4.416 5.218 9.234 10.838 15.456 13.848.803.602 1.807-.803.803-1.405zm-11.24-14.652a97.18 97.18 0 0 0-3.011-21.475c-.2-1.004-2.007-.803-1.606.4 1.806 6.824 2.8 13.85 3 20.873-.2 1.205 1.606 1.405 1.606.2zm14.252 12.846c-3-5.62-6.423-10.838-7.427-17.26l-2.8-18.464c-.2-1.004-1.807-.803-1.606.4 1.004 6.423 1.806 13.046 3 19.468 1.204 6.02 4.617 11.24 7.427 16.66.4 1.003 1.807.2 1.405-.803z"/><path d="M67.445 238.835c1.807-7.225 2.41-14.65 1.405-22.077-.2-1.004-1.806-.803-1.606.4 1.004 7.226.602 14.25-1.204 21.275-.4 1.003 1.204 1.605 1.405.4z"/><path d="M69.05 225.8c-3.613-3.613-1.806-9.634-4.015-14.05-.4-1.003-2.007-.2-1.606.803 2.4 4.616.4 10.437 4.215 14.45.803.602 2.208-.602 1.405-1.204zm5.02 24.475a193.29 193.29 0 0 0 0-37.33c-.2-1.004-1.806-.803-1.606.4a189.17 189.17 0 0 1 0 36.929c-.2 1.004 1.606 1.004 1.606 0zm-4.417 4.015c2.007 5.218 3.412 10.838 3.613 16.658.2 2.4.602 5.82-.2 8.23-.402 1.004-1.204 1.606-1.405 2.6s0 2.007-.602 3 .803 1.806 1.405 1.003c.4-.802.602-1.405.602-2.207.2-1.405 1.004-2.4 1.405-3.814.803-2.6.4-5.82.4-8.63-.4-6.02-1.606-11.84-3.814-17.46-.402-1.204-1.807-.4-1.405.602zM77.28 89.714c-4.416 6.623-7.226 14.25-7.828 22.077-.4 5.82.2 13.045 5.82 16.056s12.044-1.004 16.86-4.014c6.624-4.014 12.445-9.232 17.464-15.053.802-.803-.603-2.007-1.205-1.204-4.215 4.817-9.033 9.232-14.252 12.845-4.416 3-11.642 8.43-17.263 6.02-6.624-2.6-6.223-11.84-5.42-17.662 1.004-6.623 3.412-13.045 7.226-18.665.803-.602-.803-1.405-1.405-.4z"/><path d="M75.073 126.442c1.004-6.824 2.007-13.848 4.416-20.27 2.61-6.623 7.226-12.243 12.044-17.46.803-.803-.602-2.007-1.204-1.204-5.018 5.218-9.635 10.838-12.445 17.662-2.61 6.623-3.613 13.647-4.617 20.672 0 1.405 1.606 1.806 1.806.602z"/><path d="M73.87 125.037c-1.204-6.422.4-13.045 1.807-19.267 1.606-7.225 5.018-13.648 10.037-19.067.803-.803-.602-2.007-1.204-1.204-5.018 5.218-8.43 11.64-10.237 18.866-1.606 6.623-3.212 13.848-2.007 20.672 0 1.004 1.806 1.004 1.606 0zm5.218-17.862c5.62-4.416 10.84-9.433 15.456-15.053.602-.803-.602-2.007-1.204-1.204-4.617 5.42-9.635 10.436-15.255 14.65-.803.803.2 2.208 1.004 1.606zM77.08 126.24c2.8-5.62 5.018-11.64 9.434-16.257l13.248-13.246c.803-.803-.4-1.806-1.204-1.204-4.617 4.616-9.434 9.232-13.85 14.05-4.215 4.415-6.423 10.436-9.033 15.855-.602 1.004 1.004 1.807 1.405.803z"/><path d="M83.504 115.203c7.025-2.8 13.248-6.824 18.667-11.842.803-.803-.4-1.806-1.204-1.204-5.22 5.018-11.24 8.83-17.865 11.44-1.204.4-.602 2.007.402 1.606z"/><path d="M94.945 108.78c.803-5.017 6.825-7.024 9.033-11.44.4-1.004-1.004-1.806-1.606-.803-2.4 4.616-8.23 6.423-9.234 11.842 0 1.003 1.606 1.405 1.807.4zm-16.66 18.465c10.64-6.423 20.876-13.648 30.1-22.077.803-.803-.4-1.807-1.204-1.205-9.234 8.23-19.27 15.454-29.9 21.676-1.004.803 0 2.208 1.004 1.606zm-6.022-1.205c-3 4.816-6.825 9.03-11.24 12.644-1.806 1.605-4.416 3.813-6.825 4.616-1.004.4-2.007 0-3 .4s-1.606 1.205-2.8 1.405c-1.004 0-1.004 1.807.2 1.606 1.004 0 1.405-.402 2.208-.803 1.405-.602 2.6-.602 4.015-1.003 2.6-.803 5.018-3 7.026-4.817 4.617-3.814 8.63-8.23 11.843-13.447.803-.803-.803-1.606-1.405-.602zM.4 66.432c4.215 7.627 10.036 14.05 17.463 18.665 5.42 3.412 12.847 6.623 18.668 2.4 5.82-4.014 5.22-12.243 4.817-18.465-.602-8.43-2.6-16.658-5.82-24.486-.4-1.204-2.208-.4-1.806.602 2.6 6.623 4.416 13.246 5.22 20.27.803 5.82 2.4 15.454-2.8 19.87-6.022 5.018-14.653 0-19.872-3.813C10.237 77.07 5.42 71.45 1.807 65.027c-.4-.803-2.007.4-1.405 1.405z"/><path d="M35.128 87.305c-6.223-4.416-12.445-8.83-17.463-14.65-5.22-6.02-8.23-13.046-10.64-20.47-.4-1.204-2.208-.4-1.807.602 2.61 7.627 5.62 14.852 11.04 20.873C21.277 79.478 27.7 84.094 33.923 88.7c1.004.602 2.208-.803 1.204-1.405z"/><path d="M32.92 87.707c-6.825-2.007-12.445-6.824-17.865-11.44C8.832 71.048 4.416 64.425 1.807 56.8c-.4-1.204-2.208-.602-1.807.602 2.6 7.627 7.026 14.25 13.047 19.468 5.62 5.017 11.843 10.236 19.07 12.444 1.204.4 2.007-1.405.803-1.606zm-14.654-14.25a116.75 116.75 0 0 0-6.624-22.679c-.4-1.204-2.208-.4-1.807.602 3 7.225 5.22 14.65 6.624 22.278.2 1.204 2.007 1.004 1.806-.2zm17.464 11.64c-4.215-5.62-8.63-10.838-10.84-17.46-2.208-6.422-4.015-13.046-6.022-19.468-.4-1.204-2.007-.4-1.806.602 2.208 6.824 4.015 13.85 6.423 20.672 2.208 6.422 6.825 11.44 10.84 16.86.602.803 2.208-.2 1.405-1.204z"/><path d="M28.303 73.457c.803-8.23.2-16.257-2.208-24.084-.4-1.204-2.007-.4-1.806.602 2.208 7.627 2.8 15.454 2.007 23.28.2 1.004 2.007 1.405 2.007.2z"/><path d="M27.9 58.806c-4.416-3.412-3.412-10.236-6.423-14.45-.602-1.003-2.208.2-1.606 1.004 3.212 4.616 2.007 11.24 6.825 14.852 1.004.803 2.208-.602 1.204-1.405zm9.436 25.9c-.803-13.648-2.8-27.095-6.022-40.34-.2-1.204-2.007-.4-1.807.602 3.212 13.046 5.22 26.493 6.022 39.94.2 1.204 2.007 1.004 1.807-.2zm-4.216 5.017c3 5.42 5.42 11.24 6.624 17.46.602 2.6 1.606 6.222 1.004 8.83-.2 1.205-1.004 2.007-1.004 3.212-.2 1.204.4 2.207-.2 3.4-.4 1.004 1.204 1.807 1.806.803.402-1.003.402-1.605.402-2.6 0-1.605.602-2.8 1.004-4.415.4-3-.4-6.423-1.004-9.233a65.02 65.02 0 0 0-7.026-18.263c-.602-1.405-2.208-.4-1.606.803z"/></g><defs><clipPath id="A"><path fill="#fff" d="M0 0h110v286H0z"/></clipPath></defs></svg>