<svg xmlns="http://www.w3.org/2000/svg" width="251" height="73" fill="#c48e6a"  fill-rule="evenodd" xmlns:v="https://vecta.io/nano"><path d="M215.518 6.16c-5.902-.553-11.273.356-16.956 2.438l-.02.007c-2.598.93-5.245 2-7.976 3.1l-.757.305-7.6 2.986c-5.65 2.1-11.595 3.97-17.688 4.6-11.435 1.3-20.068-1.57-29.57-6.318l-.026-.013c-7.583-3.88-16.42-4.872-25.134-4.292l-.037.002c-3.378.182-6.685.962-10.18 1.927l-2.4.675c-2.72.777-5.594 1.596-8.493 2.16-9.317 1.862-18.182 2.266-27.543 2.062-5.46-.1-9.915-1.317-14.07-2.84-1.762-.646-3.497-1.36-5.2-2.062l-.834-.343c-1.993-.818-3.98-1.616-6.096-2.337l-.033-.012c-8.486-3.004-16.7-.26-26.12 3.015a3 3 0 0 1-1.97-5.667l.386-.134c8.95-3.112 19.062-6.63 29.7-2.876 2.294.782 4.418 1.637 6.422 2.46l.855.35 4.968 1.97c3.774 1.385 7.548 2.384 12.126 2.475h.005c9.104.198 17.5-.2 26.248-1.95l.016-.003c2.623-.5 5.157-1.232 7.83-1.994l2.6-.736c3.577-1 7.4-1.914 11.434-2.134 9.344-.62 19.364.395 28.234 4.932 8.958 4.475 16.38 6.828 26.214 5.716l.024-.002c5.346-.562 10.738-2.215 16.227-4.266 2.5-.93 4.963-1.928 7.452-2.932l.75-.303 8.186-3.17c6.36-2.334 12.628-3.43 19.566-2.782 5.014.437 9.7 1.957 14.008 3.404l.662.222c4.165 1.398 8 2.682 11.956 3.2a3 3 0 1 1-.793 5.947c-4.557-.607-8.895-2.065-12.928-3.42l-.803-.27c-4.363-1.462-8.415-2.75-12.632-3.116h-.02zm14.477 18.196c-7.15-1.608-14.7.142-21.904 3.064l-.013.005-3.737 1.5c-9.496 3.857-18.705 7.597-29.85 8.525l-.04.003c-8.665.604-18.95.675-27.505-3.05l-.004-.002-1.2-.526c-6.03-2.64-11.68-5.116-17.825-6.743-15.68-4-29.062-1.188-45.186 2.236-10.18 2.238-19.434 3.526-30.207 1.837l-.028-.005c-2.774-.462-5.15-1.38-7.328-2.35l-2.3-1.055c-1.324-.62-2.58-1.2-4.02-1.773-4.633-1.78-9.897-2.095-15.405-1.638C18.05 24.832 12.64 26 7.575 27.09l-.325.07a3 3 0 1 1-1.264-5.865l.457-.1c4.976-1.073 10.717-2.312 16.515-2.793 5.98-.496 12.257-.2 18.062 2.02l.016.006c1.612.63 3.2 1.372 4.638 2.045l1.94.893c1.983.883 3.82 1.57 5.858 1.9 9.693 1.517 18.1.4 27.986-1.774l.02-.005.403-.086c15.832-3.363 30.448-6.467 47.54-2.093l.023.006c6.616 1.75 12.674 4.405 18.618 7l1.287.563c7.1 3.092 16.076 3.166 24.67 2.568 10.168-.85 18.5-4.228 28.063-8.103l3.77-1.52c7.64-3.095 16.558-5.357 25.467-3.354a3 3 0 1 1-1.317 5.854zM9.715 43.082l-3.578.92a3 3 0 1 1-1.454-5.821L8 37.325c5.94-1.563 12.17-3.202 19.24-2.842 4.726.2 9.587 2.252 13.462 3.887l1.777.743c1.594.638 3.092 1.335 4.5 2l.587.278 3.5 1.61c2.642 1.132 5.195 1.948 8.13 2.12l.058.004c9.808.77 19.46-.573 28.783-3.484l.033-.01c16.746-5.02 32.932-3.97 48.83 2.93 16.657 7.187 31.845 4.642 49.53-.72l.01-.003 5.652-1.726c8.003-2.47 16.548-5.107 25.066-6.415 10.653-1.636 21.647-1.272 32.143 4.136a3 3 0 1 1-2.748 5.334c-8.978-4.625-18.56-5.063-28.485-3.54-8.036 1.234-16.044 3.703-24.014 6.16l-5.9 1.797c-18.045 5.47-34.975 8.54-53.647.483l-.005-.002c-14.6-6.34-29.336-7.296-44.704-2.692-9.936 3.1-20.342 4.567-30.996 3.736-3.878-.233-7.138-1.32-10.1-2.593-1.27-.544-2.52-1.136-3.723-1.707l-.57-.27c-1.4-.662-2.76-1.292-4.172-1.858l-.022-.01-2.013-.835c-3.967-1.658-7.68-3.2-11.23-3.358l-.03-.001c-6.07-.3-11.3 1.053-17.222 2.605zm-.865 17.51L3.687 62.07a3 3 0 1 1-1.373-5.841l4.7-1.35.86-.276 4-1.227c3.36-.933 7.02-1.6 11.202-1l.067.01c4.14.67 7.86 2.223 11.268 3.836l3.04 1.476c2.304 1.133 4.465 2.196 6.76 3.073l.002.001c8.944 3.423 17.56 4.216 27.434 4.216 4.507 0 8.735-.703 13.097-1.64l4.246-.95c3.04-.698 6.22-1.43 9.466-1.98l.052-.008c11.098-1.7 22.24.07 32.962 2.126l4.55.888c9.24 1.82 18.144 3.572 26.98 3.572l3.057.008c6.032.023 11.8.046 17.598-.78l.022-.003c3.508-.474 6.912-1.332 10.437-2.28l1.544-.418c2.997-.815 6.112-1.662 9.298-2.282 7.482-1.616 14.512-2.862 22.407-3.07h.08c.897 0 1.802-.098 2.884-.214l2.35-.228c1.905-.15 4.436-.237 6.587.684a3 3 0 1 1-2.363 5.515c-.66-.283-1.843-.37-3.752-.218-.494.04-1.076.1-1.697.165-1.3.137-2.8.292-3.967.296-7.337.196-13.94 1.354-21.3 2.942l-.03.006a.65.65 0 0 0-.032.007c-2.962.576-5.85 1.36-8.863 2.178l-1.594.432c-3.548.956-7.267 1.902-11.183 2.432-6.254.892-12.518.865-18.527.84L163 72.984c-9.47 0-19.02-1.884-28.22-3.7l-4.44-.868c-10.7-2.053-20.93-3.605-30.902-2.1-3.073.524-5.946 1.184-8.877 1.86l-4.547 1.022c-4.52.97-9.227 1.772-14.356 1.772-10.2 0-19.65-.812-29.578-4.612-2.568-.98-5.12-2.236-7.524-3.418l-2.702-1.312c-3.256-1.54-6.35-2.795-9.627-3.33-3.03-.415-5.786.032-8.74.852-1.223.34-2.432.728-3.722 1.143l-.916.294z"/></svg>