<svg xmlns="http://www.w3.org/2000/svg" width="898" height="714" fill="none"  xmlns:v="https://vecta.io/nano"><path d="M282.787 683.115c71.093-14.932 138.753-86.94 204.005-54.897C528.704 649 548.236 707.782 594.543 713c15.436 1.736 30.473-3.165 44.805-8.69 51.432-20.41 100.193-51.985 127.327-99.576 20.507-35.87 25.02-82.766 10.124-119.837 27.704-60.28 75.308-111.1 100.9-173.253 32.06-76.53 25.807-169.404-24.092-234.342-49.94-65.603-143.75-95.93-219.823-64.045-74.744 31.804-124.377 115.384-204.928 128.22-47.54 7.522-94.726-12.287-143.026-17.375C161.64 109.582 37.314 203.65 7.97 325.308-22.08 446.343 38.69 581.232 143.452 649.532c41.527 25.478 91.25 43.136 139.335 33.583z" fill="#e3f4ff"/></svg>