<svg xmlns="http://www.w3.org/2000/svg" width="62" height="33" fill="none"  xmlns:v="https://vecta.io/nano"><g clip-path="url(#A)"><path d="M.687 27.677l3.125-1.628h.063l18.25 6.888c.563.188.813-.69.25-.877-5.625-2.004-11.188-4.133-16.75-6.324.063-.063.063-.188.063-.313V25.1l3.938-1.816 11.187 4.634 5.688 2.317 2.875 1.127c.5.188.938.5 1.5.313a.47.47 0 0 0 .313-.438c0-.25-.062-.376-.187-.5-.187-.188-.375-.188-.562-.063 0 0-.062 0-.062.063-.062 0-.125.063-.125.125-.562-.125-1.375-.626-1.75-.814l-2.562-1.064-5.125-2.066-9.125-3.757c.125-.063.188-.188.188-.376 0-.125 0-.25.063-.376l4.313-1.69c.063.063.125.125.188.125s.188.063.25.063c.125.188.313.25.5.188 5.75 1.878 11.438 4.195 16.875 6.825.563.25 1-.564.438-.814-5.5-2.63-11.187-4.947-17-6.888l5.563-1.88c.063.125.125.25.313.313 5.25 1.94 10.562 3.757 15.875 5.448.563.188.813-.69.25-.877-5.062-1.628-10.125-3.38-15.125-5.197v-.125c2.25-.69 4.5-1.315 6.813-1.94.063.063.188.125.313.125.063.125.125.188.25.188l13.937 3.82c.563.188.813-.75.25-.877l-13.312-3.632c1.875-.5 3.688-1.064 5.438-1.69h.063c4 .814 8.063 1.816 12 2.88.5.125.75-.438.438-.75-.125-.188-.312-.376-.437-.564-.25-.313-.625-.125-.75.188-3.25-.877-6.5-1.628-9.75-2.317 2.188-.814 4.375-1.753 6.5-2.88.313-.125.625-.313.938-.438 2.313.69 4.625 1.2 7 1.44.563.063.563-.877 0-.94-1.937-.188-3.875-.564-5.812-1.127l4.625-2.442c1.063.376 2.125.564 3.25.69.625.063.563-.877 0-.94-.687-.063-1.437-.188-2.062-.376 2.563-1.378 5.063-2.818 7.625-4.258.5-.313.063-1.065-.5-.814l-8.375 4.634c-.125-.063-.25-.063-.375-.125L54.624.688c.25-.564-.562-1.002-.812-.438L51.25 6.2c-.062.188-.062.376.063.5l-3.562 1.88L49.124 1.7c.125-.564-.812-.814-.875-.25l-1.5 7.452c-.25 0-.375.188-.437.376-.25.125-.437.25-.625.313-2.125 1.064-4.312 2.004-6.5 2.818L43.75 2.317c.25-.564-.562-1.002-.812-.438-1.75 3.632-3.312 7.326-4.75 11.02-1.875.69-3.812 1.252-5.75 1.816L36.25 3.632c.188-.564-.687-.814-.875-.25l-4 11.647c-.375.125-.75.188-1.125.313l-5.437 1.503c.813-3.13 1.938-6.137 3.438-9.017.25-.564 3.313-4.947.938-4.57-.562.063-.562 1.002 0 .94-.437.063-1.562 2.755-1.812 3.194-.562 1.065-1 2.13-1.5 3.256-.875 2.13-1.625 4.32-2.187 6.575-2 .626-4.062 1.252-6.062 2.004.75-5.5 4.063-10.27 5.438-15.592 0-.063.063-.063.063-.125.063-.188.063-.376.125-.564.125-.564-.75-.814-.875-.25-1.312 5.824-5 10.896-5.687 16.844-1.563.564-3.125 1.2-4.688 1.816.625-5.76 2.875-11.334 4.75-16.782.188-.564-.687-.814-.875-.25-1.937 5.698-4.187 11.397-4.812 17.47l-5.25 2.317c.063-1.503.375-3.006.813-4.51.563-1.69 1.375-3.256 1.938-4.884.5-1.503.875-3.006 1.063-4.57.188-1.94-.312-4.383.875-6.01.313-.564-.5-1.002-.875-.564-1 1.378-.875 2.88-.875 4.51 0 2.192-.437 4.32-1.125 6.325-.625 1.753-1.5 3.38-2.062 5.197-.5 1.628-.75 3.256-.812 4.947-1.562.75-3.062 1.503-4.562 2.38-.5.25 0 1.065.5.75zm10.125-4.884h0c.063.063.063 0 0 0z" fill="#c48e6a"/></g><defs><clipPath id="A"><path fill="#fff" d="M0 0h62v33H0z"/></clipPath></defs></svg>