<svg xmlns="http://www.w3.org/2000/svg" width="153" height="75" fill="none"  xmlns:v="https://vecta.io/nano"><path d="M63.252 16.287c-.844-1.685-1.99-3.3-3.616-4.814-10.426-9.63-33.748-16.25-44.173-3.25C11.004 13.76 7.75 21.04 4.676 27.42c-4.64 9.51-5.424 18.175.482 27.443 4.7 7.342 11.4 15.527 20.007 18.295 4.7 1.504 10.185 1.083 14.042-1.926 3.194-2.468 4.942-6.38 6.8-9.93 6.63-12.157 24.588-29.9 17.235-45.016z" fill="#ffe3d4"/><path d="M25.26 45l-5.08-6.22V45h-2.8V31.04h2.8v6.26l5.08-6.26h3.38l-5.76 6.92L28.8 45h-3.54zm12.582 0l-3.08-5.44h-1.32V45h-2.8V31.04h5.24c1.08 0 2 .193 2.76.58.76.373 1.327.887 1.7 1.54.387.64.58 1.36.58 2.16a4.2 4.2 0 0 1-.8 2.5c-.533.733-1.327 1.24-2.38 1.52l3.34 5.66h-3.24zm-4.4-7.54h2.34c.76 0 1.327-.18 1.7-.54.373-.373.56-.887.56-1.54 0-.64-.187-1.133-.56-1.48-.373-.36-.94-.54-1.7-.54h-2.34v4.1zm12.812-6.42V45h-2.8V31.04h2.8zm7.586 14.1c-.973 0-1.853-.167-2.64-.5-.773-.333-1.387-.813-1.84-1.44s-.687-1.367-.7-2.22h3c.04.573.24 1.027.6 1.36.373.333.88.5 1.52.5.653 0 1.167-.153 1.54-.46.373-.32.56-.733.56-1.24 0-.413-.127-.753-.38-1.02s-.573-.473-.96-.62c-.373-.16-.893-.333-1.56-.52-.907-.267-1.647-.527-2.22-.78-.56-.267-1.047-.66-1.46-1.18-.4-.533-.6-1.24-.6-2.12 0-.827.207-1.547.62-2.16s.993-1.08 1.74-1.4c.747-.333 1.6-.5 2.56-.5 1.44 0 2.607.353 3.5 1.06.907.693 1.407 1.667 1.5 2.92h-3.08c-.027-.48-.233-.873-.62-1.18-.373-.32-.873-.48-1.5-.48-.547 0-.987.14-1.32.42-.32.28-.48.687-.48 1.22 0 .373.12.687.36.94a3.23 3.23 0 0 0 .92.6 21.05 21.05 0 0 0 1.56.52c.907.267 1.647.533 2.22.8s1.067.667 1.48 1.2.62 1.233.62 2.1a3.95 3.95 0 0 1-.58 2.08c-.387.64-.953 1.153-1.7 1.54-.747.373-1.633.56-2.66.56zm16.868-14.1v2.26h-3.72V45h-2.8V33.3h-3.72v-2.26h10.24zm4.842 0V45h-2.8V31.04h2.8zM90.258 45h-2.8l-6.34-9.58V45h-2.8V31.02h2.8l6.34 9.6v-9.6h2.8V45zm5.567-11.7v3.5h4.7v2.22h-4.7v3.7h5.3V45h-8.1V31.02h8.1v2.28h-5.3zm15.4-2.26V45h-2.8V31.04h2.8zm10.685 6.8c.787.147 1.433.54 1.94 1.18s.76 1.373.76 2.2c0 .747-.187 1.407-.56 1.98-.36.56-.887 1-1.58 1.32s-1.513.48-2.46.48H114V31.04h5.76c.947 0 1.76.153 2.44.46.693.307 1.213.733 1.56 1.28.36.547.54 1.167.54 1.86 0 .813-.22 1.493-.66 2.04-.427.547-1 .933-1.72 1.16zm-5.12-1.04h2.56c.667 0 1.18-.147 1.54-.44.36-.307.54-.74.54-1.3s-.18-.993-.54-1.3-.873-.46-1.54-.46h-2.56v3.5zm2.82 5.92c.68 0 1.207-.16 1.58-.48.387-.32.58-.773.58-1.36 0-.6-.2-1.067-.6-1.4-.4-.347-.94-.52-1.62-.52h-2.76v3.76h2.82zm15.793-.38h-5.56l-.92 2.66h-2.94l5.02-13.98h3.26l5.02 13.98h-2.96l-.92-2.66zm-.76-2.24l-2.02-5.84-2.02 5.84h4.04zm17.617-9.06l-4.72 9.1V45h-2.8v-4.86l-4.74-9.1h3.16l3 6.38 2.98-6.38h3.12z" fill="#191919"/></svg>