<svg xmlns="http://www.w3.org/2000/svg" width="839" height="1024" fill="none"  xmlns:v="https://vecta.io/nano"><g clip-path="url(#A)"><g fill="#ffe3d4"><path d="M371.936 18.963c-1.004-14.058-4.518-28.62-11.545-43.43C314.964-121.12 171.9-232.834 62.735-171.58c-46.43 25.857-89.598 67.78-129 103.18-58.98 52.97-88.845 111.213-73.787 192.55 11.796 64.52 35.387 140.083 87.6 183.514 28.36 23.598 67.512 36.4 102.9 26.36 29.113-8.284 52.203-30.376 75.543-49.706C205.55 217.54 380.23 144.486 371.947 18.964zm-519.518 435.813c-13.804-2.762-28.862-3.013-45.176 0-104.907 18.828-249.97 128.534-219.1 249.788 13.05 51.465 42.164 104.184 66.258 151.38 36.14 70.794 84.327 114.476 166.647 121.003 65.254 5.272 144.3 2 200.027-37.154 30.117-21.34 52.705-55.983 51.952-92.636-.502-30.376-15.8-58.242-28.6-85.857C1.248 666.908-24.1 479.378-147.58 454.776zm952.7-222.676c-9.286-10.544-21.08-19.833-35.9-27.364-94.868-48.703-276.574-49.456-325.514 65.522-20.83 48.954-29.615 108.45-39.152 160.417-14.306 78.075-2.26 142.1 59.23 197.572 48.7 43.933 113.7 89.12 181.454 91.63 36.894 1.506 75.795-12.552 97.63-42.175 18.07-24.352 22.587-55.983 29.364-85.606 22.587-101.17 116.2-265.856 32.877-359.997zM441.456 1111a68.92 68.92 0 0 0 20.078-15.06c40.156-43.43 67.763-140.583 13.552-184.013-23.1-18.577-53.457-32.134-80.06-44.937-39.654-19.33-75.794-22.594-114.444 2.008-30.62 19.582-64.752 47.448-76.297 83.347-6.274 19.58-4.517 42.426 8.032 58.495 10.3 13.3 26.603 20.58 41.4 28.37 50.947 27.6 124.985 102.17 187.73 71.8z"/></g><g fill="#ffa188"><path d="M160.866 701.803c6.023-2.762 16.815-10.795 11.796-18.326-4.267-6.276-14.055-3.264-18.823.753-3.765 3.012-8.032 9.54-4.518 14.058 2.008 2.5 7.53 3.766 11.545 3.515zm-32.126 22.845c16.062-6.778 1.004-22.594-6.777-11.8-2.5 3.515-3.764 7.03-.5 10.042 2.258 2.008 5.772 2.76 8.282 1.255m-13.553-35.395c17.317-10.795-4.768-28.87-11.545-13.557-3.513 8.536 4.016 13.054 11.545 13.557zm-30.117 18.827c1.004-5.774.753-11.548-5.772-13.306-2.76 3.013-5.52 8.536-3.012 12.553 1.506 2.5 7.027 5.02 8.784 1.757"/><path d="M154.6 742.22c8.032-.502 14.808-13.305 3.012-11.8-7.53 1.004-12.298 10.042-3.012 11.8zm-12.547-80.333c5.52 1.004 9.035-1.506 10.792-7.03 1.505-4.268.752-6.276-3.765-7.03-6.776-1.004-15.3 13.557-7.027 14.06zm-55.466 77.07c2.008-1.507 7.78-5.02 5.52-8.285-1.757-2.26-4.517-.753-6.274.25s-5.52 3.515-4.768 6.276c.502 1.758 3.765 3.013 5.27 1.506m34.135 33.14c3.765-2.26 9.035-9.288 5.02-13.305-3.263-3.264-6.526-.25-8.283 2.76-2.008 4.017-1.506 9.54 3.263 10.544zM86.075 775.6c2.5-2.008 6.776-7.28 4.77-10.795-1.506-2.76-5.27-3.263-7.53-1.255-3.514 2.76-2.76 11.046 2.76 12.05z"/></g><g fill="#ace0d2"><path d="M226.62 738.204c13.804-41.422 59.48-55.73 69.018-97.907 3.514-15.565 1.255-34.142-2.258-50.2-5.02-23.598-8.032-40.67-6.526-65.02-19.827 30.125-52.705 35.146-64.25 72.552-4.77 16.067-10.792 30.376-18.07 45.44-8.784 18.326-4.015 30.627 2.5 48.45 5.773 15.314 11.043 32.134 19.576 46.694zm35.9 2.01c-4.016-51.966 80.563-50.2 108.672-71.548 24.344-18.577 29.364-46.694 47.183-70.794 13.553-18.327 28.36-26.36 50.446-31.13 10.54-2.26 23.843-1.757 30.368-7.28-34.384 38.16-16.564 104.434-67 132.05-24.596 13.305-41.662 19.33-57.725 42.678-15.56 22.593-27.607 26.36-54.46 21.6-19.576-3.263-40.9-5.774-57.473-15.564zM221.1 770.6c18.07-26.1 56.218 11.046 72.532 20.083 8.784 5.02 20.078 10.293 30.117 12.302 10.04 1.757 17.568-2 27.105-3.515 31.12-5.02 53.457 17.573 78.806 30.878-36.642 14.06-68.014 35.147-109.174 28.62-35.137-5.523-63.748-28.62-82.57-57.74-5.772-9.037-14.305-20.585-16.815-30.627z"/></g><path d="M-3.272-17.187c-6.525-16.57-15.56-31.883-26.603-45.7s-23.843-26.11-38.148-36.4c-7.278-5.02-14.808-9.288-23.1-11.8s-16.815-3.263-25.348-2.26-17.067 3.515-25.098 6.527c-8.282 3.013-16.062 7.03-24.093 11.046-15.812 8.033-32.125 15.314-45.678 26.36s-23.1 26.61-28.862 43.18-7.78 34.644-6.525 52.217c.753 8.787 2.51 17.573 5.52 25.607 3.012 8.285 7.278 16.067 11.796 23.347 9.537 14.812 21.584 27.866 33.13 41.422 11.795 13.306 22.336 27.866 34.634 40.167 6.275 6.025 13.05 11.297 20.83 15.314a75.12 75.12 0 0 0 24.345 8.033c16.815 2.762 34.885.25 49.693-8.535l5.27-3.515c1.757-1.255 3.263-2.76 5.02-4.016 3.263-2.762 6.274-5.774 8.784-9.29 5.27-6.778 9.537-14.56 14.054-22.092l13.302-23.096c4.267-7.782 8.282-15.565 11.796-23.598C-1.515 69.674 3.254 52.352 4.51 34.78S3.003-.618-3.272-17.187zm.502 0C3.756-.618 6.767 17.206 6.014 35.03 5.513 52.854 1.246 70.678-5.28 87.247c-3.263 8.284-7.027 16.57-11.043 24.35-4.016 8.034-8.533 15.565-12.8 23.348s-8.533 15.815-14.306 22.845c-2.76 3.514-6.023 7.03-9.537 10.04-1.757 1.507-3.514 3.013-5.27 4.268l-5.772 3.766c-15.812 9.288-35.137 12.3-53.207 9.288-9.035-1.506-17.82-4.518-25.85-9.037-8.03-4.268-15.31-10.042-21.834-16.318-12.8-12.803-22.84-27.364-34.384-40.92-11.294-13.557-23.1-27.113-32.376-42.427-4.768-7.53-8.784-15.565-11.545-24.1-3.01-8.535-4.517-17.322-5.27-26.36-1.255-17.824 1.004-35.9 6.525-52.72 2.76-8.535 6.526-16.57 11.294-24.35 4.77-7.53 10.54-14.56 17.317-20.586 6.777-5.774 14.306-10.795 22.086-15.314s15.56-8.535 23.34-12.803c7.78-4.016 16.062-8.033 24.344-11.297s17.067-5.774 26.353-6.778c9.035-1.004 18.32 0 27.105 2.762 8.784 3.012 16.564 7.782 23.592 13.054 14.306 11.046 26.603 23.85 37.395 38.16C-18.08-49.32-9.044-33.756-2.77-17.187z" fill="#ffa188"/><path d="M540.59 890.086c10.3 14.31 23.1 27.113 37.144 37.657s29.615 19.33 46.18 25.606c8.282 3.013 16.815 5.272 25.348 5.774 8.533.25 17.066-1.255 25.097-4.268 8.032-3.263 15.56-7.53 22.588-12.552s13.804-10.795 20.33-16.57c13.05-11.8 27.105-23.096 37.395-37.154 10.54-14.06 15.812-31.632 17.067-49.205 1.506-17.573-1.004-35.397-7.028-51.966-2.76-8.284-6.776-16.318-11.795-23.347-5.02-7.28-11.043-13.808-17.57-19.582-13.05-11.8-27.858-21.59-42.414-31.63-14.808-9.79-28.612-21.34-43.67-29.874-7.53-4.268-15.56-7.532-23.843-9.54s-17.066-2.5-25.6-1.757c-17.066 1.506-33.63 8.535-45.928 20.836l-4.267 4.77c-1.255 1.757-2.5 3.515-3.765 5.02-2.51 3.515-4.517 7.28-6.274 11.297-3.514 7.782-5.52 16.318-8.03 24.853-2.26 8.536-5.02 17.07-7.028 25.607s-4.015 17.07-5.52 25.857c-2.76 17.322-3.012 35.147.25 52.47 3.765 16.568 11.043 33.137 21.333 47.698zm-.502.25c-10.3-14.31-17.82-30.878-21.835-48.45-4.016-17.322-4.266-35.65-2.26-53.222 1.004-8.786 2.5-17.573 4.518-26.36s4.517-17.322 6.525-25.858 4.267-17.322 8.03-25.858c1.757-4.267 4.016-8.284 6.526-12.05l4.015-5.523 4.518-5.02c13.05-13.055 30.87-20.837 49.19-22.343 9.035-.753 18.32 0 27.105 2.008s17.318 5.774 25.098 10.293c15.56 9.037 29.113 20.837 43.67 30.878 14.557 10.293 29.113 20.586 42.164 32.887 6.526 6.276 12.298 13.054 17.317 20.334 5.02 7.532 8.785 15.565 11.796 24.1 5.773 16.82 8.03 34.895 7.028 52.72-.502 9.038-2.26 17.824-4.77 26.36s-6.525 16.82-11.545 24.35-11.294 14.058-17.568 20.334-12.8 12.302-19.325 18.327-13.302 11.8-20.58 17.07-15.06 10.04-23.592 13.305-17.82 4.77-26.854 4.017-17.82-3.264-26.1-6.78c-16.565-7.03-31.874-16.317-45.678-27.363-14.305-11.046-27.105-23.85-37.395-38.16z" fill="#b3d5f1"/><path d="M569.453 828.33c-7.78-29.874-1.255-63.263 15.56-88.87 4.267-6.527 9.788-13.054 17.318-15.062 8.03-2.26 16.815.753 24.093 5.02 14.557 8.284 26.604 20.585 37.395 33.39 8.785 10.292 17.067 21.087 22.84 33.137s8.784 25.858 6.776 39.163c-2.258 14.56-10.54 27.364-19.074 39.163-14.054 18.828-34.132 32.887-55.465 15.063-8.533-7.03-14.808-16.57-22.337-24.603-11.796-11.8-22.84-19.832-27.105-36.4zm-28.11 7.53c1.757 4.77 3.764 9.29 6.023 13.808 11.043 20.836 29.615 34.644 45.176 51.715 10.3 11.297 21.332 22.594 37.144 25.355 22.086 3.766 45.426-10.04 59.983-25.606 25.348-27.113 38.9-65.523 29.615-100.418-2.5-9.54-6.776-19.08-13.05-27.866-26.1-37.405-72.03-98.91-125.487-70.04-22.588 12.3-37.897 58.493-43.42 82.342-3.765 17.07-1.757 34.645 4.016 50.71z" fill="#e3f4ff"/><path d="M598.315 831.844c2.26 9.037 12.047 19.832 20.078 24.853 7.78 4.77 16.313 3.515 23.34-1.757 16.313-12.05 17.82-31.38 15.058-50.21-2.76-16.82-15.81-52.72-39.654-42.426-12.047 5.27-10.04 20.083-11.796 30.627-1.254 7.782-4.015 15.314-5.52 23.347-1.255 5.523-1.506 9.79-1.506 15.565z" fill="#b3d5f1"/><path d="M176.677 215.53c-10.54-15.564-22.085-30.376-35.136-43.68-13.804-14.56-29.866-28.368-49.19-34.142-46.43-14.06-78.555 27.866-77.3 70.543 1.004 37.406 11.043 72.3 12.55 109.455 2.008 46.946-3.514 90.125-7.53 136.568-7.78 92.636 84.83 201.338 168.655 112.217 44.925-47.698 47.685-126.526 43.92-188.032-3.765-58.242-23.592-114.727-55.968-162.928z" fill="#e3f4ff"/><g fill="#b3d5f1"><path d="M202.78 470.6c30.87 8.787 51.45 4.52 55.967-28.368 2.26-17.07 8.533-35.648-9.788-46.443-12.047-7.03-41.913-13.807-54.963-9.8-19.325 6.276-13.804 28.116-12.55 43.18 1.004 11.8 1.757 42.678 21.333 41.422zm116.702-23.095c-16.564 1.004-26.1 6.778-22.588 23.598 1.757 8.787 2.008 19.08 12.8 21.088 7.027 1.255 22.84-.502 28.6-4.77 8.282-6.276 1.757-16.067-1.255-23.347-2.5-5.774-8.282-20.585-17.568-16.57zm-3.514-112.97c-16.564 1.004-26.1 6.778-22.588 23.598 1.757 8.786 2.008 19.08 12.8 21.087 7.027 1.256 22.84-.502 28.6-4.77 8.283-6.276 1.757-16.067-1.255-23.347-2.5-5.523-8.282-20.586-17.568-16.57z"/></g><path d="M733.34-93.106c-18.573-18.828-59.48-29.372-85.834-24.853-36.39 6.025-51.2 37.154-64.25 67.03-19.576 45.44-42.164 86.6-33.38 138.576 7.78 45.188 44.422 62.008 79.057 33.138 19.827-16.57 26.352-39.916 45.175-58.494 14.557-14.31 34.384-25.355 47.435-41.673 21.082-25.606 36.39-84.1 11.796-113.723z" fill="#ace0d2"/><g stroke="#c48e6a" stroke-width="3" stroke-miterlimit="10"><path d="M17.308 918.956c11.545-4.017 23.1-8.033 35.137-3.766 11.043 3.766 19.074 9.038 31.623 9.3 11.545.25 22.337-.25 33.63-2.5 9.035-1.757 17.568-5.522 26.854-6.024 11.294-.754 23.1.502 33.38 5.774 11.545 5.774 21.584 9.037 34.886 7.53 14.305-1.506 28.36-8.787 41.66-13.557 7.53-2.76 14.808-4.016 22.84-3.263 11.545 1.004 21.835 7.03 33.13 8.535M15.802 939.04c12.8-2.76 28.6-6.276 41.662-1.255 5.772 2.26 10.3 5.272 16.313 6.276 12.8 2.008 23.843.502 36.4-2.26 20.078-4.268 37.646-8.034 58.226-2.762 8.533 2.26 16.313 5.774 24.345 9.3 9.788 4.267 21.834 4.268 32.626 3.514 15.06-1.255 27.106-6.778 40.9-12.3 9.286-3.765 19.576-6.276 29.615-4.016m-281.592 24.35c9.035-2.26 17.317-5.02 27.105-4.52 6.023.25 12.298 3.264 17.82 5.523 7.53 3.013 13.553 7.28 22.086 7.783 12.8 1.004 25.348-.754 37.395-4.52 20.078-6.025 39.403-4.77 58.477 3.515 22.086 9.54 42.164 6.025 64.5-.754 24.344-7.28 51.45-17.824 75.794-5.272m-306.19 20.84c8.533-2.008 15.56-6.025 24.595-4.77 9.286 1.507 17.066 7.03 25.6 10.293 11.796 4.52 23.1 5.523 35.638 5.523 12.047 0 22.337-3.766 34.133-5.774 26.352-4.017 53.458 8.284 80.06 8.284 8.784 0 17.568.252 26.352-1.004 9.286-1.255 17.82-4.518 26.855-6.276 9.286-2.008 17.82-3.514 27.356-3.765 4.015 0 9.788-1.507 13.302 0"/></g></g><defs><clipPath id="A"><path fill="#fff" transform="matrix(0 1 -1 0 839 -934)" d="M0 0h2104v1609H0z"/></clipPath></defs></svg>