<svg xmlns="http://www.w3.org/2000/svg" width="602" height="970" fill="none"  xmlns:v="https://vecta.io/nano"><g clip-path="url(#A)"><path d="M623.235 220.23c-11.964-34.5-26.192-68.11-44.005-99.643-19.067-34.392-41.813-68.255-75.198-88.81-80.118-49.73-161.54 12.79-180.655 93.5-16.935 70.7-15.64 141.233-31.505 211.715-19.85 89.108-51.943 167.362-82.85 252.5-61.22 169.928 58 420.49 260.257 295.4 108.362-66.92 153.208-213.46 177.084-330.776 22.107-110.72 12.95-227.288-23.127-333.897z" fill="#e3f4ff"/></g><defs><clipPath id="A"><path fill="#fff" transform="matrix(0 -1 1 0 0 970)" d="M0 0h970v684H0z"/></clipPath></defs></svg>